<?xml version="1.0" encoding="utf-8"?>
<svg version="1.1" id="Layer_1"
xmlns="http://www.w3.org/2000/svg"
xmlns:xlink="http://www.w3.org/1999/xlink"
width="400px" height="400px"
xml:space="preserve">
<g id="PathID_1" transform="matrix(6.16729, 0, 0, 6.16729, 272.9, 242.95)" opacity="1">
<path style="fill:#AB7FDE;fill-opacity:1" d="M13.65 -18.2L13.95 2.7Q13.95 4.95 12.65 7.25Q11.3 9.6 9.35 10.65L-8.9 20.85Q-10.85 21.95 -12.2 21.15Q-13.65 20.3 -13.65 18.15L-13.95 -2.75Q-13.95 -5.05 -12.6 -7.3Q-11.35 -9.65 -9.4 -10.7L8.9 -20.9Q10.85 -21.9 12.2 -21.2Q13.55 -20.35 13.65 -18.2" />
</g>
<g id="PathID_2" transform="matrix(6.16729, 0, 0, 6.16729, 272.9, 242.95)" opacity="1">
</g>
<g id="PathID_3" transform="matrix(6.16729, 0, 0, 6.16729, 124.9, 241.05)" opacity="1">
<path style="fill:#D30054;fill-opacity:1" d="M12.65 -7.25Q13.95 -5 13.95 -2.7L13.65 18.2Q13.55 20.35 12.2 21.2Q10.75 21.9 8.8 20.9L-9.4 10.7Q-11.35 9.55 -12.7 7.3Q-14.05 5 -13.95 2.75L-13.65 -18.15Q-13.65 -20.3 -12.2 -21.15Q-10.85 -21.85 -8.9 -20.85L9.35 -10.65Q11.3 -9.5 12.65 -7.25" />
</g>
<g id="PathID_4" transform="matrix(6.16729, 0, 0, 6.16729, 124.9, 241.05)" opacity="1">
</g>
<g id="PathID_5" transform="matrix(6.16729, 0, 0, 6.16729, 198.85, 117.05)" opacity="1">
<path style="fill:#EFB110;fill-opacity:1" d="M22.5 -2.7Q24.45 -1.55 24.45 0.1Q24.45 1.75 22.5 2.75L4.6 13.5Q2.65 14.6 -0.05 14.6Q-2.75 14.6 -4.6 13.5L-22.5 2.75Q-24.45 1.75 -24.45 0.1Q-24.45 -1.55 -22.5 -2.7L-4.6 -13.4Q-2.75 -14.55 -0.05 -14.55Q2.65 -14.55 4.6 -13.4L22.5 -2.7" />
</g>
<g id="PathID_6" transform="matrix(6.16729, 0, 0, 6.16729, 198.85, 117.05)" opacity="1">
</g>
<g id="PathID_7" transform="matrix(2.12267, -1.2851, 2.16058, 1.22029, 192.05, 169.65)" opacity="1">
<path style="fill:#FFFFFF;fill-opacity:1" d="M37.55 -37.15L44.8 -37.15L44.8 0L38.35 0L38.35 -28.9L23.8 -11L9.25 -28.9L9.25 0L2.8 0L2.8 -37.15L9.95 -37.15L23.8 -20.4L37.55 -37.15" />
</g>
<g id="PathID_8" transform="matrix(2.12267, -1.2851, 2.16058, 1.22029, 192.05, 169.65)" opacity="1">
</g>
<g id="PathID_9" transform="matrix(2.21085, 1.12649, -0.173121, 2.47523, 68, 272)" opacity="1">
<path style="fill:#FFFFFF;fill-opacity:1" d="M33 -37.15Q34.45 -37.15 35.75 -36.6Q37.05 -36.05 38 -35.05Q38.95 -34.1 39.5 -32.85Q40.05 -31.55 40.05 -30.1L40.05 -7Q40.05 -5.55 39.5 -4.3Q38.95 -3 38 -2.05Q37.05 -1.1 35.75 -0.55Q34.5 0 33 0L2.9 0L2.9 -37.15L33 -37.15M33.6 -30.1Q33.6 -30.35 33.45 -30.55Q33.25 -30.7 33 -30.7L9.9 -30.7Q9.7 -30.7 9.5 -30.55Q9.35 -30.35 9.35 -30.1L9.35 -7Q9.35 -6.75 9.5 -6.6Q9.7 -6.4 9.9 -6.4L33 -6.4Q33.25 -6.4 33.45 -6.6Q33.6 -6.8 33.6 -7L33.6 -30.1" />
</g>
<g id="PathID_10" transform="matrix(2.21085, 1.12649, -0.173121, 2.47523, 68, 272)" opacity="1">
</g>
<g id="PathID_11" transform="matrix(2.21087, -1.12643, 0.173103, 2.47517, 236.65, 317.95)" opacity="1">
<path style="fill:#FFFFFF;fill-opacity:1" d="M39.7 -27.5L33.25 -27.5L33.25 -30.1Q33.25 -30.35 33.1 -30.55Q32.9 -30.7 32.65 -30.7L9.55 -30.7Q9.35 -30.7 9.15 -30.55Q9 -30.35 9 -30.1L9 -22.35Q9 -22.1 9.15 -21.95Q9.35 -21.75 9.55 -21.75L32.65 -21.75Q34.1 -21.75 35.4 -21.2Q36.7 -20.65 37.65 -19.7Q38.6 -18.75 39.15 -17.45Q39.7 -16.15 39.7 -14.75L39.7 -7Q39.7 -5.55 39.15 -4.3Q38.6 -3 37.65 -2.05Q36.7 -1.1 35.4 -0.55Q34.15 0 32.65 0L9.55 0Q8.1 0 6.8 -0.55Q5.55 -1.05 4.6 -2.05Q3.6 -3 3.1 -4.25Q2.55 -5.55 2.55 -7L2.55 -9.6L9 -9.6L9 -7Q9 -6.75 9.15 -6.6Q9.35 -6.4 9.55 -6.4L32.65 -6.4Q32.9 -6.4 33.1 -6.6Q33.25 -6.8 33.25 -7L33.25 -14.75Q33.25 -14.95 33.1 -15.15Q32.9 -15.35 32.65 -15.35L9.55 -15.35Q8.1 -15.35 6.8 -15.9Q5.55 -16.4 4.6 -17.4Q3.6 -18.35 3.1 -19.65Q2.55 -20.9 2.55 -22.35L2.55 -30.1Q2.55 -31.55 3.1 -32.85Q3.6 -34.1 4.6 -35.1Q5.55 -36.05 6.85 -36.6Q8.1 -37.15 9.55 -37.15L32.65 -37.15Q34.1 -37.15 35.4 -36.6Q36.7 -36.05 37.65 -35.1Q38.6 -34.1 39.15 -32.85Q39.7 -31.55 39.7 -30.1L39.7 -27.5" />
</g>
<g id="PathID_12" transform="matrix(2.21087, -1.12643, 0.173103, 2.47517, 236.65, 317.95)" opacity="1">
</g>
</svg>
